HIERARCHY
ROOT Hips
{
	OFFSET	0.00	0.00	0.00
	CHANNELS 6 Xposition Yposition Zposition Zrotation Xrotation Yrotation
	JOINT LeftUpLeg
	{
		OFFSET	 0.126116	-0.014019	-0.065224
		CHANNELS 3 Zrotation Xrotation Yrotation
		JOINT LeftLeg
		{
			OFFSET	 0.000000	 0.000000	 0.569914
			CHANNELS 3 Zrotation Xrotation Yrotation
			JOINT LeftFoot
			{
				OFFSET	 0.000000	 0.000000	 0.544423
				CHANNELS 3 Zrotation Xrotation Yrotation
				JOINT LeftToeBase
				{
					OFFSET	 0.000000	 0.000000	 0.207117
					CHANNELS 3 Zrotation Xrotation Yrotation
					End Site
					{
						OFFSET	 0.000000	 0.000000	 0.207117
					}
				}
			}
		}
	}
	JOINT RightUpLeg
	{
		OFFSET	-0.124023	-0.008373	-0.065224
		CHANNELS 3 Zrotation Xrotation Yrotation
		JOINT RightLeg
		{
			OFFSET	 0.000000	 0.000000	 0.570047
			CHANNELS 3 Zrotation Xrotation Yrotation
			JOINT RightFoot
			{
				OFFSET	 0.000000	 0.000000	 0.544354
				CHANNELS 3 Zrotation Xrotation Yrotation
				JOINT RightToeBase
				{
					OFFSET	 0.000000	 0.000000	 0.207540
					CHANNELS 3 Zrotation Xrotation Yrotation
					End Site
					{
						OFFSET	 0.000000	 0.000000	 0.207540
					}
				}
			}
		}
	}
	JOINT Spine
	{
		OFFSET	 0.000184	-0.007763	 0.117403
		CHANNELS 3 Zrotation Xrotation Yrotation
		JOINT Spine1
		{
			OFFSET	 0.000000	 0.000000	 0.137269
			CHANNELS 3 Zrotation Xrotation Yrotation
			JOINT Spine2
			{
				OFFSET	 0.000000	 0.000000	 0.156879
				CHANNELS 3 Zrotation Xrotation Yrotation
				JOINT LeftShoulder
				{
					OFFSET	 0.080501	-0.002496	 0.160144
					CHANNELS 3 Zrotation Xrotation Yrotation
					JOINT LeftArm
					{
						OFFSET	 0.000000	 0.000000	 0.164363
						CHANNELS 3 Zrotation Xrotation Yrotation
						JOINT LeftForeArm
						{
							OFFSET	 0.000000	 0.000000	 0.364576
							CHANNELS 3 Zrotation Xrotation Yrotation
							JOINT LeftHand
							{
								OFFSET	 0.000000	 0.000000	 0.360812
								CHANNELS 3 Zrotation Xrotation Yrotation
								JOINT LeftHandIndex1
								{
									OFFSET	 0.000000	 0.000000	 0.086006
									CHANNELS 3 Zrotation Xrotation Yrotation
									JOINT LeftHandIndex2
									{
										OFFSET	 0.000000	 0.000000	 0.047236
										CHANNELS 3 Zrotation Xrotation Yrotation
										JOINT LeftHandIndex3
										{
											OFFSET	-0.004284	-0.000551	 0.038166
											CHANNELS 3 Zrotation Xrotation Yrotation
											End Site
											{
												OFFSET	-0.004284	-0.000551	 0.038166
											}
										}
									}
								}
							}
						}
					}
				}
				JOINT Neck
				{
					OFFSET	 0.000000	 0.000000	 0.176489
					CHANNELS 3 Zrotation Xrotation Yrotation
					JOINT Head
					{
						OFFSET	 0.000000	-0.001747	 0.077940
						CHANNELS 3 Zrotation Xrotation Yrotation
						End Site
						{
							OFFSET	 0.000000	-0.001747	 0.077940
						}
					}
				}
				JOINT RightShoulder
				{
					OFFSET	-0.080363	 0.000306	 0.159706
					CHANNELS 3 Zrotation Xrotation Yrotation
					JOINT RightArm
					{
						OFFSET	 0.000000	 0.000000	 0.164196
						CHANNELS 3 Zrotation Xrotation Yrotation
						JOINT RightForeArm
						{
							OFFSET	 0.000000	 0.000000	 0.365611
							CHANNELS 3 Zrotation Xrotation Yrotation
							JOINT RightHand
							{
								OFFSET	 0.000000	 0.000000	 0.360648
								CHANNELS 3 Zrotation Xrotation Yrotation
								JOINT RightHandIndex1
								{
									OFFSET	 0.000000	 0.000000	 0.069977
									CHANNELS 3 Zrotation Xrotation Yrotation
									JOINT RightHandIndex2
									{
										OFFSET	 0.000000	 0.000000	 0.052305
										CHANNELS 3 Zrotation Xrotation Yrotation
										JOINT RightHandIndex3
										{
											OFFSET	 0.009002	-0.000782	 0.042196
											CHANNELS 3 Zrotation Xrotation Yrotation
											End Site
											{
												OFFSET	 0.009002	-0.000782	 0.042196
											}
										}
									}
								}
							}
						}
					}
				}
			}
		}
	}
}
MOTION
Frames:    11
Frame Time: 0.03333334
 0.000058	 0.019637	 1.272608	-0.002849	 0.007058	 0.099671	-8.441026	-1.679919	 179.122000	 1.469278	-12.272760	-0.717051	-5.121326	 71.376300	-1.186135	-2.385833	 28.452760	 0.000004	 8.316658	-1.925695	-179.253200	-1.456373	-12.241210	 0.702002	 4.981520	 71.187780	 1.169283	 2.384658	 28.388730	 0.000004	-2.631355	 2.711181	 0.190231	-1.122248	 3.676589	-0.417375	 3.410485	-4.647799	 0.737153	-91.776070	 78.527470	 179.999900	 58.689130	 40.351310	-62.879230	-8.476806	 0.193260	-0.746179	-31.395840	-18.008150	-4.761531	-2.635965	 4.993658	 6.788941	-5.165319	 0.784187	 3.516649	-5.225038	 0.466231	 0.424329	-0.000002	-3.783157	-0.089647	 3.315548	 4.944234	-0.143197	 89.782070	 78.203890	-180.000000	-64.421460	 42.001930	 55.987460	 7.431692	 5.809742	 13.620730	 32.157440	-18.779920	 9.518261	 6.112037	 4.509576	-0.364401	 4.968462	 1.518543	-9.347576	 5.168945	 0.703820	 2.021906
 0.000062	 0.019576	 1.273597	-0.002849	 0.007058	 0.099671	-8.351368	-1.682109	 179.115300	 1.469282	-12.272770	-0.717053	-5.129245	 71.210840	-1.175285	-2.385833	 28.452760	 0.000004	 8.226998	-1.927628	-179.246800	-1.456371	-12.241180	 0.702002	 4.988160	 71.022510	 1.159840	 2.384658	 28.388730	 0.000004	-2.954053	 2.711181	 0.190231	-1.122248	 3.676589	-0.417375	 3.410485	-4.647799	 0.737153	-91.776070	 78.527470	 179.999900	 58.643430	 40.340530	-62.810930	-8.730134	 0.199030	-0.973663	-32.062820	-19.816230	-5.004035	-2.635965	 4.993658	 6.788941	-5.165319	 0.784187	 3.516649	-5.225038	 0.466231	 0.424329	-0.000002	-3.783157	-0.089647	 3.315548	 4.944235	-0.143197	 89.782070	 78.203890	-180.000000	-64.271850	 41.599660	 56.783550	 7.229847	 5.663661	 13.641560	 32.988120	-20.876480	 9.640422	 6.112037	 4.509576	-0.364401	 4.968462	 1.518543	-9.347576	 5.168945	 0.703820	 2.021906
 0.000071	 0.019462	 1.275532	-0.002849	 0.007058	 0.099671	-8.178965	-1.686205	 179.102300	 1.469281	-12.272550	-0.717039	-5.143484	 70.893010	-1.155178	-2.385833	 28.452760	 0.000004	 8.054579	-1.931319	-179.234600	-1.456378	-12.240980	 0.701989	 5.000056	 70.705140	 1.142323	 2.384658	 28.388730	 0.000004	-3.655594	 2.711181	 0.190231	-1.122248	 3.676592	-0.417379	 3.410487	-4.647801	 0.737155	-91.776120	 78.527470	 179.999900	 58.519440	 40.319880	-62.628400	-9.277262	 0.219515	-1.470458	-33.559470	-23.646090	-5.666064	-2.635965	 4.993658	 6.788941	-5.165319	 0.784187	 3.516649	-5.225038	 0.466231	 0.424329	-0.000002	-3.783157	-0.089647	 3.315550	 4.944234	-0.143197	 89.782080	 78.203900	-180.000000	-63.628110	 40.515620	 58.753100	 6.622476	 5.430862	 13.951540	 34.916490	-25.420240	 10.047750	 6.112037	 4.509576	-0.364401	 4.968462	 1.518543	-9.347576	 5.168945	 0.703820	 2.021906
 0.000081	 0.019357	 1.277480	-0.002849	 0.007058	 0.099671	-8.005850	-1.690537	 179.089200	 1.469283	-12.272680	-0.717045	-5.156804	 70.574490	-1.135744	-2.385833	 28.452760	 0.000004	 7.881419	-1.935214	-179.222300	-1.456371	-12.241080	 0.701998	 5.011077	 70.387000	 1.125397	 2.384658	 28.388730	 0.000004	-4.452761	 2.711181	 0.190231	-1.122248	 3.676592	-0.417379	 3.410485	-4.647800	 0.737155	-91.776130	 78.527450	 179.999900	 58.339130	 40.284070	-62.361120	-9.896080	 0.253548	-2.033117	-35.338330	-27.717250	-6.633363	-2.635965	 4.993658	 6.788941	-5.165319	 0.784187	 3.516649	-5.225038	 0.466231	 0.424329	-0.000002	-3.783157	-0.089647	 3.315548	 4.944234	-0.143197	 89.782130	 78.203890	 180.000000	-61.776880	 38.823940	 59.872310	 5.282251	 6.188770	 17.166800	 36.690260	-30.399520	 10.589640	 6.112037	 4.509576	-0.364401	 4.968462	 1.518543	-9.347576	 5.168945	 0.703820	 2.021906
 0.000090	 0.019266	 1.279461	-0.002849	 0.007058	 0.099671	-7.832294	-1.694853	 179.076200	 1.469282	-12.272670	-0.717044	-5.169009	 70.255610	-1.117105	-2.385833	 28.452760	 0.000004	 7.707858	-1.939094	-179.210100	-1.456373	-12.241080	 0.701997	 5.021130	 70.068540	 1.109178	 2.384658	 28.388730	 0.000004	-5.334447	 2.711181	 0.190231	-1.122248	 3.676589	-0.417375	 3.410484	-4.647799	 0.737153	-91.776070	 78.527470	 179.999900	 58.096230	 40.222870	-61.994480	-10.680760	 0.306113	-2.657335	-37.276440	-31.681350	-7.909793	-2.635965	 4.993658	 6.788941	-5.165319	 0.784187	 3.516649	-5.225038	 0.466231	 0.424329	-0.000002	-3.783157	-0.089647	 3.315548	 4.944234	-0.143197	 89.782070	 78.203900	-180.000000	-59.165580	 36.708960	 63.409010	 3.320880	 5.869241	 18.474860	 37.519200	-35.655000	 10.845440	 6.112037	 4.509576	-0.364401	 4.968462	 1.518543	-9.347576	 5.168945	 0.703820	 2.021906
 0.000100	 0.019181	 1.281288	-0.002849	 0.007058	 0.099671	-7.663581	-1.699082	 179.063500	 1.469281	-12.272660	-0.717045	-5.179927	 69.946020	-1.099711	-2.385833	 28.452760	 0.000004	 7.539130	-1.942972	-179.198200	-1.456369	-12.241210	 0.702002	 5.030047	 69.759460	 1.094028	 2.384658	 28.388730	 0.000004	-6.261459	 2.711179	 0.190231	-1.122248	 3.676590	-0.417374	 3.410485	-4.647799	 0.737153	-91.776070	 78.527470	 179.999900	 57.789260	 40.137520	-61.525510	-11.442110	 0.380129	-3.320339	-39.412110	-35.041380	-9.424442	-2.635965	 4.993658	 6.788941	-5.165319	 0.784187	 3.516649	-5.225038	 0.466231	 0.424329	-0.000002	-3.783157	-0.089647	 3.315548	 4.944234	-0.143197	 89.782060	 78.203900	-180.000000	-55.775150	 34.414560	 68.468320	 1.075870	 4.923901	 18.258270	 37.653320	-40.273090	 10.971500	 6.112037	 4.509576	-0.364401	 4.968462	 1.518543	-9.347576	 5.168945	 0.703820	 2.021906
 0.000112	 0.019095	 1.282874	-0.002849	 0.007058	 0.099671	-7.494868	-1.703296	 179.050800	 1.469283	-12.272540	-0.717040	-5.189858	 69.636890	-1.083045	-2.385833	 28.452760	 0.000004	 7.370392	-1.946763	-179.186200	-1.456371	-12.241100	 0.701997	 5.038043	 69.450710	 1.079540	 2.384658	 28.388730	 0.000004	-7.245576	 2.711181	 0.190231	-1.122246	 3.676592	-0.417369	 3.410478	-4.647801	 0.737144	-91.776120	 78.527450	 179.999900	 57.419690	 40.021260	-60.953700	-12.258230	 0.478333	-4.028456	-41.567280	-37.445720	-11.021230	-2.635965	 4.993658	 6.788941	-5.165319	 0.784187	 3.516649	-5.225038	 0.466231	 0.424329	-0.000002	-3.783157	-0.089647	 3.315549	 4.944234	-0.143197	 89.782030	 78.203870	-179.999900	-51.418790	 31.448320	 73.974860	-1.337159	 4.003351	 17.889290	 36.645390	-43.702070	 10.702920	 6.112037	 4.509576	-0.364401	 4.968462	 1.518543	-9.347576	 5.168945	 0.703820	 2.021906
 0.000122	 0.018980	 1.284267	-0.002849	 0.007058	 0.099671	-7.322157	-1.707762	 179.037800	 1.469279	-12.272670	-0.717046	-5.199129	 69.321000	-1.066607	-2.385833	 28.452760	 0.000004	 7.197685	-1.950729	-179.174100	-1.456369	-12.241080	 0.701996	 5.045404	 69.135190	 1.065296	 2.384658	 28.388730	 0.000004	-8.296603	 2.711181	 0.190231	-1.122247	 3.676594	-0.417369	 3.410484	-4.647804	 0.737150	-91.776140	 78.527430	 180.000000	 56.973550	 39.863100	-60.251370	-13.142630	 0.608019	-4.795413	-43.495290	-38.412200	-12.401140	-2.635965	 4.993658	 6.788941	-5.165319	 0.784187	 3.516649	-5.225038	 0.466231	 0.424329	-0.000002	-3.783157	-0.089647	 3.315550	 4.944232	-0.143197	 89.782070	 78.203900	-180.000000	-46.681840	 28.185540	 82.590610	-3.826526	 2.109525	 12.519100	 34.477330	-45.414040	 9.797551	 6.112037	 4.509576	-0.364401	 4.968462	 1.518543	-9.347576	 5.168945	 0.703820	 2.021906
 0.000130	 0.018799	 1.285436	-0.002847	 0.007055	 0.099630	-7.150496	-1.712136	 179.025000	 1.469281	-12.272550	-0.717038	-5.207400	 69.007310	-1.050987	-2.385833	 28.452760	 0.000004	 7.026011	-1.954775	-179.161900	-1.456366	-12.241210	 0.702004	 5.051927	 68.822070	 1.051682	 2.384658	 28.388730	 0.000004	-9.364846	 2.711181	 0.190272	-1.122251	 3.676593	-0.417379	 3.410488	-4.647801	 0.737155	-91.776230	 78.527470	-180.000000	 56.471860	 39.671470	-59.450100	-14.059620	 0.769151	-5.591955	-44.769630	-37.408840	-13.087740	-2.635965	 4.993658	 6.788941	-5.165319	 0.784187	 3.516649	-5.225038	 0.466231	 0.424329	-0.000002	-3.783157	-0.089647	 3.315548	 4.944235	-0.143197	 89.782100	 78.203900	 180.000000	-41.528270	 24.582010	 91.752670	-6.608715	 0.612722	 5.645660	 31.211430	-44.712270	 8.101623	 6.112037	 4.509576	-0.364401	 4.968462	 1.518543	-9.347576	 5.168945	 0.703820	 2.021906
 0.000132	 0.018663	 1.286251	-0.002849	 0.007058	 0.099671	-6.996816	-1.716185	 179.013500	 1.469283	-12.272660	-0.717044	-5.214097	 68.726980	-1.037461	-2.385833	 28.452760	 0.000004	 6.872391	-1.958309	-179.151200	-1.456372	-12.241070	 0.701996	 5.057102	 68.542020	 1.039996	 2.384658	 28.388730	 0.000004	-10.320060	 2.711180	 0.190231	-1.122247	 3.676590	-0.417374	 3.410483	-4.647799	 0.737152	-91.776060	 78.527450	 179.999900	 55.982970	 39.465190	-58.653960	-14.902320	 0.940055	-6.322057	-45.159480	-34.570790	-12.854030	-2.635965	 4.993658	 6.788941	-5.165319	 0.784187	 3.516649	-5.225038	 0.466231	 0.424329	-0.000002	-3.783157	-0.089647	 3.315550	 4.944232	-0.143197	 89.782050	 78.203900	-180.000000	-34.727340	 20.394860	 95.624280	-9.311007	 0.752842	 6.378420	 26.924070	-41.557750	 5.896173	 6.112037	 4.509576	-0.364401	 4.968462	 1.518543	-9.347576	 5.168945	 0.703820	 2.021906
 0.000134	 0.018561	 1.286860	-0.002849	 0.007058	 0.099671	-6.826040	-1.720653	 179.000700	 1.469281	-12.272650	-0.717044	-5.220765	 68.415750	-1.023015	-2.385833	 28.452760	 0.000004	 6.701588	-1.962363	-179.139200	-1.456371	-12.241100	 0.701996	 5.062089	 68.231190	 1.027487	 2.384658	 28.388730	 0.000004	-11.352880	 2.711181	 0.190231	-1.122249	 3.676591	-0.417366	 3.410486	-4.647802	 0.737149	-91.776130	 78.527450	 179.999900	 55.414930	 39.210220	-57.714230	-15.848660	 1.158646	-7.140315	-44.774790	-29.159780	-11.618410	-2.635965	 4.993658	 6.788941	-5.165319	 0.784187	 3.516649	-5.225038	 0.466231	 0.424329	-0.000002	-3.783157	-0.089647	 3.315552	 4.944232	-0.143197	 89.782100	 78.203890	 180.000000	-25.895050	 15.570000	 99.370410	-12.242040	 0.938452	 7.201476	 22.096140	-35.287330	 3.147148	 6.112037	 4.509576	-0.364401	 4.968462	 1.518543	-9.347576	 5.168945	 0.703820	 2.021906
